<?xml version="1.0" standalone="no"?>
<!DOCTYPE svg PUBLIC "-//W3C//DTD SVG 20010904//EN"
 "http://www.w3.org/TR/2001/REC-SVG-20010904/DTD/svg10.dtd">
<svg version="1.0" xmlns="http://www.w3.org/2000/svg"
 width="200.000000pt" height="200.000000pt" viewBox="0 0 200.000000 200.000000"
 preserveAspectRatio="xMidYMid meet">
<metadata>
Created by potrace 1.11, written by Peter Selinger 2001-2013
</metadata>
<g transform="translate(0.000000,200.000000) scale(0.100000,-0.100000)"
fill="#000000" stroke="none">
<path d="M1870 1343 l0 -658 -40 63 c-22 34 -45 62 -51 62 -11 0 -12 1 47 -96
40 -65 44 -76 43 -135 l-1 -64 -22 65 c-23 67 -65 120 -94 120 -26 0 -181 70
-241 108 -30 19 -84 48 -120 65 -36 16 -79 40 -94 53 -16 13 -34 24 -40 24 -6
0 -21 9 -33 21 l-22 21 -7 -84 c-4 -45 -8 -101 -10 -123 -1 -22 1 -48 6 -57
20 -37 -10 -16 -49 34 -22 29 -56 67 -74 84 -34 33 -78 53 -78 36 0 -5 -11
-12 -25 -14 -13 -3 -22 -1 -19 3 14 23 -19 3 -93 -56 -45 -35 -87 -74 -93 -86
-21 -38 -31 -6 -41 127 -5 71 -13 132 -17 136 -5 5 -30 -3 -58 -16 -69 -33
-322 -104 -391 -109 -11 -1 -19 -5 -17 -8 2 -4 -23 -9 -55 -13 -60 -7 -84 -20
-148 -82 l-33 -31 0 -367 0 -366 1000 0 1000 0 0 1000 0 1000 -65 0 -65 0 0
-657z m-1043 -655 c-3 -7 -5 -2 -5 12 0 14 2 19 5 13 2 -7 2 -19 0 -25z m50
-4 c9 -20 9 -26 -2 -30 -7 -3 -16 -12 -19 -20 -3 -8 -2 -13 3 -10 11 7 20 -14
14 -31 -3 -7 -9 -13 -15 -13 -6 0 -8 7 -4 15 3 9 0 15 -10 15 -11 0 -13 6 -9
22 6 16 4 20 -8 15 -11 -4 -14 -2 -10 9 3 7 9 14 14 14 5 0 9 9 9 20 0 28 23
25 37 -6z m23 10 c0 -8 -5 -12 -10 -9 -6 4 -8 11 -5 16 9 14 15 11 15 -7z m17
-6 c-3 -8 -6 -5 -6 6 -1 11 2 17 5 13 3 -3 4 -12 1 -19z m28 2 c3 -5 1 -10 -4
-10 -6 0 -11 5 -11 10 0 6 2 10 4 10 3 0 8 -4 11 -10z m31 -37 c-3 -4 -17 -8
-29 -10 -17 -2 -19 -1 -7 7 17 11 47 14 36 3z m-6 -44 c0 -6 -4 -7 -10 -4 -5
3 -10 11 -10 16 0 6 5 7 10 4 6 -3 10 -11 10 -16z m-152 -14 c-3 -3 -9 2 -12
12 -6 14 -5 15 5 6 7 -7 10 -15 7 -18z m52 -56 c0 -6 -4 -7 -10 -4 -5 3 -10
11 -10 16 0 6 5 7 10 4 6 -3 10 -11 10 -16z m170 -36 c-3 -43 -1 -46 17 -32
14 12 16 12 8 0 -6 -11 -4 -13 8 -8 12 4 14 2 10 -10 -5 -12 -3 -14 7 -8 8 5
11 3 8 -6 -3 -8 -13 -13 -22 -11 -10 2 -20 -7 -26 -23 -5 -14 -12 -25 -15 -25
-4 0 -3 5 0 10 10 16 -12 12 -29 -5 -8 -8 -17 -11 -20 -6 -4 5 0 11 6 14 25 8
-2 20 -47 21 -30 0 -45 4 -45 13 0 7 8 13 18 14 14 0 14 2 -3 9 -19 7 -18 8 7
15 15 4 34 17 43 29 12 16 25 21 41 18 14 -2 24 0 24 7 0 6 3 11 6 11 3 0 5
-12 4 -27z m83 -58 c-3 -9 -8 -14 -10 -11 -3 3 -2 9 2 15 9 16 15 13 8 -4z
m-13 -40 c0 -9 -6 -12 -16 -8 -13 5 -13 7 -2 14 17 11 18 11 18 -6z"/>
<path d="M1029 1567 c-31 -21 -34 -27 -31 -66 3 -52 17 -81 38 -81 8 0 13 4 9
9 -3 6 3 14 12 20 10 6 14 11 9 11 -5 0 -3 7 4 15 8 10 9 15 2 15 -21 0 -1 28
24 33 30 5 32 -9 2 -16 l-22 -6 24 -26 23 -25 -21 0 c-12 0 -22 -4 -22 -10 0
-10 49 -10 51 0 0 3 2 15 3 27 4 31 15 41 26 23 5 -8 13 -11 17 -6 4 4 -1 14
-12 23 -19 15 -19 15 5 9 l25 -7 -27 21 c-16 12 -28 28 -28 35 0 12 -29 25
-61 25 -9 0 -31 -10 -50 -23z"/>
<path d="M830 1563 c-8 -4 -20 -13 -27 -22 -9 -13 -7 -18 10 -28 l22 -13 -21
-6 c-15 -4 -20 -11 -17 -25 6 -20 28 -26 37 -10 3 5 15 7 26 4 14 -4 21 1 26
22 13 54 -15 94 -56 78z"/>
<path d="M1020 1292 c-31 -4 -88 -47 -77 -58 4 -4 37 -11 73 -15 36 -4 71 -12
77 -19 10 -10 8 -11 -8 -5 -34 14 -94 14 -105 0 -6 -8 -25 -17 -41 -20 -16 -4
-29 -11 -29 -16 0 -10 25 -12 103 -9 35 1 47 -2 47 -13 0 -20 -77 -52 -127
-52 -48 0 -60 -20 -18 -31 50 -12 24 -44 -36 -44 -20 0 -28 -4 -23 -11 3 -6 1
-15 -6 -19 -20 -12 77 -80 115 -80 34 0 100 39 154 91 33 31 32 45 -4 71 -6 4
-5 19 3 41 7 18 12 50 12 70 0 33 -4 38 -36 52 -30 12 -34 17 -25 34 6 11 11
22 11 24 0 8 -33 13 -60 9z"/>
<path d="M898 1273 c7 -3 16 -2 19 1 4 3 -2 6 -13 5 -11 0 -14 -3 -6 -6z"/>
<path d="M838 1163 c6 -2 18 -2 25 0 6 3 1 5 -13 5 -14 0 -19 -2 -12 -5z"/>
<path d="M1720 900 c0 -5 5 -10 10 -10 6 0 10 5 10 10 0 6 -4 10 -10 10 -5 0
-10 -4 -10 -10z"/>
</g>
</svg>
